<?xml version="1.0" standalone="no"?>
<!DOCTYPE svg PUBLIC "-//W3C//DTD SVG 20010904//EN"
 "http://www.w3.org/TR/2001/REC-SVG-20010904/DTD/svg10.dtd">
<svg version="1.0" xmlns="http://www.w3.org/2000/svg"
 width="512.000000pt" height="512.000000pt" viewBox="0 0 512.000000 512.000000"
 preserveAspectRatio="xMidYMid meet">
<metadata>
Created by potrace 1.14, written by Peter Selinger 2001-2017
</metadata>
<g transform="translate(0.000000,512.000000) scale(0.100000,-0.100000)"
fill="#000000" stroke="none">
<path d="M435 5106 c-159 -39 -294 -145 -370 -290 -69 -132 -65 25 -64 -2256
0 -1407 3 -2081 10 -2115 33 -154 154 -312 292 -380 142 -70 -37 -65 2272 -62
1150 1 2097 5 2105 8 8 3 29 9 45 14 67 17 170 81 232 143 76 76 136 193 152
292 7 44 11 737 10 2120 0 1928 -1 2059 -18 2120 -50 186 -187 330 -378 398
-45 15 -199 17 -2143 19 -1624 1 -2106 -1 -2145 -11z"/>
</g>
</svg>
