<?xml version="1.0" standalone="no"?>
<!DOCTYPE svg PUBLIC "-//W3C//DTD SVG 20010904//EN"
 "http://www.w3.org/TR/2001/REC-SVG-20010904/DTD/svg10.dtd">
<svg version="1.0" xmlns="http://www.w3.org/2000/svg"
 width="512.000000pt" height="512.000000pt" viewBox="0 0 512.000000 512.000000"
 preserveAspectRatio="xMidYMid meet">
<metadata>
Created by potrace 1.14, written by Peter Selinger 2001-2017
</metadata>
<g transform="translate(0.000000,512.000000) scale(0.100000,-0.100000)"
fill="#000000" stroke="none">
<path d="M629 5116 c-2 -2 -22 -6 -45 -9 -52 -7 -165 -50 -224 -84 -155 -91
-269 -234 -332 -419 l-23 -69 -2 -1955 c-2 -1901 -1 -1957 17 -2029 65 -248
241 -436 485 -519 l80 -27 1975 0 1975 0 88 31 c120 43 189 86 278 174 81 79
147 179 175 262 45 136 43 58 43 2083 0 1138 -4 1938 -9 1965 -15 73 -18 83
-35 130 -35 97 -115 215 -193 284 -80 70 -175 124 -292 163 -53 17 -141 18
-2006 21 -1073 1 -1952 0 -1955 -2z"/>
</g>
</svg>
